<svg xmlns="http://www.w3.org/2000/svg" xmlns:xlink="http://www.w3.org/1999/xlink" width="10" height="8" viewBox="0 0 10 8"><defs><path id="r886a" d="M685.4 91.3l-3.26-3.24a.48.48 0 0 1-.14-.35c0-.14.05-.26.14-.35l.72-.7c.1-.1.2-.16.34-.16a.5.5 0 0 1 .36.16l2.19 2.18 4.69-4.68a.5.5 0 0 1 .36-.16c.14 0 .25.05.34.16l.72.7c.1.1.14.2.14.35 0 .14-.05.26-.14.35l-5.76 5.74c-.09.1-.2.16-.35.16a.45.45 0 0 1-.35-.16z"/></defs><g><g transform="translate(-682 -84)"><use fill="#fff" xlink:href="#r886a"/></g></g></svg>