<svg xmlns="http://www.w3.org/2000/svg" xmlns:xlink="http://www.w3.org/1999/xlink" width="16" height="18" viewBox="0 0 16 18"><defs><path id="b43ia" d="M689.5 1152.42a.4.4 0 0 0-.12-.3.4.4 0 0 0-.3-.12h-1.4a.4.4 0 0 0-.3.12.4.4 0 0 0-.13.3v1.4c0 .13.04.22.12.3a.4.4 0 0 0 .3.13h1.4a.4.4 0 0 0 .3-.12.4.4 0 0 0 .13-.3zm0 4.5a.4.4 0 0 0-.12-.3.4.4 0 0 0-.3-.12h-1.4a.4.4 0 0 0-.3.12.4.4 0 0 0-.13.3v1.4c0 .13.04.22.12.3a.4.4 0 0 0 .3.13h1.4a.4.4 0 0 0 .3-.12.4.4 0 0 0 .13-.3zm-4.5-4.5a.4.4 0 0 0-.12-.3.4.4 0 0 0-.3-.12h-1.4a.4.4 0 0 0-.3.12.4.4 0 0 0-.13.3v1.4c0 .13.04.22.12.3a.4.4 0 0 0 .3.13h1.4a.4.4 0 0 0 .3-.12.4.4 0 0 0 .13-.3zm0 4.5a.4.4 0 0 0-.12-.3.4.4 0 0 0-.3-.12h-1.4a.4.4 0 0 0-.3.12.4.4 0 0 0-.13.3v1.4c0 .13.04.22.12.3a.4.4 0 0 0 .3.13h1.4a.4.4 0 0 0 .3-.12.4.4 0 0 0 .13-.3zm-4.5-4.5a.4.4 0 0 0-.12-.3.4.4 0 0 0-.3-.12h-1.4a.4.4 0 0 0-.3.12.4.4 0 0 0-.13.3v1.4c0 .13.04.22.12.3a.4.4 0 0 0 .3.13h1.4a.4.4 0 0 0 .3-.12.4.4 0 0 0 .13-.3zm0 4.5a.4.4 0 0 0-.12-.3.4.4 0 0 0-.3-.12h-1.4a.4.4 0 0 0-.3.12.4.4 0 0 0-.13.3v1.4c0 .13.04.22.12.3a.4.4 0 0 0 .3.13h1.4a.4.4 0 0 0 .3-.12.4.4 0 0 0 .13-.3zm-4.08-7.17h14.9a.4.4 0 0 1 .3.12.4.4 0 0 1 .13.3v9.14c0 .47-.16.87-.5 1.2-.32.33-.72.49-1.19.49H677.7c-.47 0-.87-.16-1.2-.5-.33-.32-.49-.72-.49-1.19v-9.14a.4.4 0 0 1 .12-.3.4.4 0 0 1 .3-.12zm14.9-1.13h-14.9a.4.4 0 0 1-.3-.12.4.4 0 0 1-.12-.3v-1.26c0-.47.16-.87.5-1.2.32-.33.72-.49 1.19-.49h1.68v-1.83a.4.4 0 0 1 .13-.3.4.4 0 0 1 .3-.12h1.4a.4.4 0 0 1 .3.12.4.4 0 0 1 .12.3v1.83h4.5v-1.83a.4.4 0 0 1 .13-.3.4.4 0 0 1 .3-.12h1.4a.4.4 0 0 1 .3.12.4.4 0 0 1 .12.3v1.83h1.7c.46 0 .86.16 1.19.5.33.32.49.72.49 1.19v1.26a.4.4 0 0 1-.12.3.4.4 0 0 1-.3.12z"/></defs><g><g transform="translate(-676 -1143)"><use fill="#4b63dd" xlink:href="#b43ia"/></g></g></svg>